<?xml version="1.0" encoding="UTF-8"?>
<svg xmlns="http://www.w3.org/2000/svg" baseProfile="tiny" version="1.2" viewBox="0 0 113.4 113.39">
  <!-- Generator: Adobe Illustrator 28.7.4, SVG Export Plug-In . SVG Version: 1.2.0 Build 166)  -->
  <g>
    <g id="_レイヤー_2">
      <path d="M41.83,44.92c5.26-4.51,13.25-8.7,24.49-12.61,12.99-4.52,21.16-5.46,38.52-6.76l-26.93-11.18-6.45,2.68-19.05-8.41L14.12,25.55h31.19-.03.04c15.25,0,20.59.58,20.59.58-10.32,2.89-32.05,9.9-44.38,15.57-9.65,4.89-12.57,8.35-13.04,17.16,8.17,5.52,25.03,9.41,38.62,8.43-9.97,4.15-15.95,16.14-15.95,25.55,21.53,10.55,46.63,13.63,70.88,11.42.88-21.57-27.77-52.62-60.21-59.34Z"/>
    </g>
  </g>
</svg>