<svg width="48" height="48" viewBox="0 0 48 48" fill="none" xmlns="http://www.w3.org/2000/svg">
<path d="M24.0137 0C30.5331 0 31.3497 0.0284918 33.9199 0.150391C36.4713 0.262913 38.2161 0.674915 39.7451 1.26562C41.321 1.8751 42.6621 2.70078 43.9941 4.03223C45.3355 5.36374 46.1522 6.70477 46.7432 8.29883C47.334 9.81771 47.7468 11.571 47.8594 14.1211C47.9719 16.6809 48 17.4971 48 24.0137C48 30.5302 47.9719 31.3467 47.8594 33.9062C47.7468 36.4566 47.3341 38.2011 46.7432 39.7295C46.1334 41.3048 45.3076 42.646 43.9756 43.9775C42.6437 45.3089 41.3023 46.1337 39.7266 46.7432C38.207 47.3339 36.4527 47.7468 33.9014 47.8594C31.3405 47.9719 30.5241 48 24.0049 48C17.4856 48 16.6692 47.9719 14.1084 47.8594C11.557 47.7469 9.8122 47.3339 8.2832 46.7432C6.70729 46.1337 5.36523 45.309 4.0332 43.9775C2.69196 42.6462 1.87591 41.3052 1.25684 39.7207C0.665883 38.2017 0.253204 36.4478 0.140625 33.8975C0.0280606 31.3376 5.57342e-07 30.5216 0 24.0049C0 17.488 0.0280595 16.6718 0.140625 14.1025C0.253204 11.5522 0.665883 9.80768 1.25684 8.2793C1.87588 6.70425 2.69207 5.36354 4.0332 4.03223C5.36511 2.69146 6.70688 1.87569 8.29199 1.25684C9.81154 0.666131 11.566 0.253176 14.1172 0.140625C16.678 0.0281053 17.4946 1.15222e-06 24.0137 0ZM24 11C16.8228 11 11 16.8228 11 24C11 31.1772 16.8228 37 24 37C31.1772 37 37 31.1772 37 24C37 16.8228 31.1772 11 24 11ZM24 15.5674C28.6563 15.5674 32.4326 19.3437 32.4326 24C32.4326 28.6563 28.6563 32.4326 24 32.4326C19.3437 32.4326 15.5674 28.6563 15.5674 24C15.5674 19.3437 19.3437 15.5674 24 15.5674ZM38.8779 7C37.2937 7.00011 36.0001 8.28434 36 9.87793C36 11.4622 37.2843 12.7558 38.8779 12.7559C40.4623 12.7559 41.7559 11.4717 41.7559 9.87793C41.7558 8.29364 40.4622 7 38.8779 7Z" fill="black"/>
</svg>
