<svg width="48" height="48" viewBox="0 0 48 48" fill="none" xmlns="http://www.w3.org/2000/svg">
<path d="M24.0137 0C30.5331 0 31.3497 0.0284918 33.9199 0.150391C36.4713 0.262913 38.2161 0.674915 39.7451 1.26562C41.321 1.8751 42.6621 2.70078 43.9941 4.03223C45.3355 5.36374 46.1522 6.70477 46.7432 8.29883C47.334 9.81772 47.7468 11.571 47.8594 14.1211C47.9719 16.6809 48 17.4971 48 24.0137C48 30.5303 47.9719 31.3467 47.8594 33.9062C47.7468 36.4566 47.3341 38.2011 46.7432 39.7295C46.1334 41.3048 45.3076 42.646 43.9756 43.9775C42.6437 45.3089 41.3023 46.1337 39.7266 46.7432C38.207 47.3339 36.4527 47.7468 33.9014 47.8594C31.3405 47.9719 30.5241 48 24.0049 48C17.4856 48 16.6692 47.9719 14.1084 47.8594C11.557 47.7469 9.8122 47.3339 8.2832 46.7432C6.70729 46.1337 5.36523 45.309 4.0332 43.9775C2.69196 42.6462 1.87591 41.3052 1.25684 39.7207C0.665883 38.2017 0.253204 36.4478 0.140625 33.8975C0.0280606 31.3376 5.60088e-07 30.5216 0 24.0049C0 17.488 0.0280595 16.6718 0.140625 14.1025C0.253204 11.5522 0.665883 9.80768 1.25684 8.2793C1.87588 6.70425 2.69207 5.36354 4.0332 4.03223C5.36511 2.69146 6.70688 1.87569 8.29199 1.25684C9.81154 0.666131 11.566 0.253176 14.1172 0.140625C16.678 0.0281053 17.4946 1.15222e-06 24.0137 0ZM18.3428 28.0635C18.3342 28.0676 18.3271 28.0743 18.3232 28.083L17.1914 30.5361C17.1874 30.545 17.1866 30.5552 17.1895 30.5645C17.1924 30.5736 17.1988 30.581 17.207 30.5859C17.3828 30.6809 17.7395 30.7832 17.9912 30.7832C19.0361 30.799 20.0815 30.7864 21.1279 30.7832C21.1436 30.783 21.1594 30.7729 21.1641 30.7588L22.291 28.3125C22.294 28.3064 22.2953 28.2998 22.2949 28.293C22.2945 28.2862 22.2928 28.2791 22.2891 28.2734C22.2852 28.2677 22.2796 28.2628 22.2734 28.2598C22.2672 28.2567 22.2599 28.2554 22.2529 28.2559H22.252C21.9306 28.2574 20.11 28.2623 19.584 28.2607C19.1719 28.2571 18.7627 28.1891 18.3711 28.0605C18.3618 28.0578 18.3515 28.0594 18.3428 28.0635ZM9.8877 17.3809C9.88107 17.3833 9.87421 17.3877 9.86914 17.3926C9.86418 17.3975 9.86002 17.4037 9.85742 17.4102C9.85488 17.4166 9.85426 17.4237 9.85449 17.4307C9.85449 19.09 9.83789 21.8562 9.83789 28.2432C9.83784 28.6991 9.41195 28.6582 9.39453 28.6582H8.22363C8.1603 28.6598 8.15382 28.6643 8.16016 28.7324C8.16252 28.7926 8.89664 30.4175 9.03906 30.7324C9.05491 30.7638 9.08616 30.784 9.11914 30.7842C9.3677 30.7889 10.3336 30.7981 10.6045 30.7617C10.8467 30.7301 11.0794 30.6667 11.2979 30.5527C11.7729 30.3057 12.074 29.8896 12.2402 29.3418C12.3225 29.0695 12.3594 28.783 12.3594 28.498C12.3625 24.8089 12.3587 21.1195 12.3477 17.4287C12.3476 17.4154 12.3423 17.403 12.333 17.3936C12.3235 17.3841 12.3103 17.3779 12.2969 17.3779H9.9082C9.90135 17.3775 9.89416 17.3786 9.8877 17.3809ZM33.3525 17.2373C33.3431 17.2467 33.3399 17.2562 33.3398 17.2734V18.1387C33.3334 18.1668 33.3109 18.1726 33.2852 18.1729H31.7061C31.6713 18.176 31.6614 18.1857 31.6582 18.2236V20.5684C31.6582 20.675 31.6547 20.6951 31.71 20.6982H33.2334C33.3632 20.6982 33.3477 20.9014 33.3477 20.9014V22.7188C33.3477 22.7188 33.3524 22.9039 33.2529 22.9043H30.9062C30.7986 22.9043 30.8115 23.0342 30.8115 23.0342V25.3223C30.8106 25.3292 30.7994 25.4295 30.9121 25.4297H33.293C33.3451 25.4333 33.3398 25.4537 33.3398 25.5547V30.7393C33.3421 30.7767 33.3521 30.7868 33.3896 30.7891H35.8145C35.8519 30.7868 35.8612 30.7769 35.8633 30.7402V25.4854C35.8633 25.4394 35.8733 25.4297 35.916 25.4297L39.5938 25.4248C39.7489 25.4248 39.8962 25.4566 40.0371 25.5215C40.1629 25.577 40.2709 25.6672 40.3477 25.7812C40.4242 25.8952 40.4666 26.0288 40.4707 26.166C40.4834 26.7913 40.4756 27.4167 40.4756 28.042C40.4756 28.4521 40.3062 28.623 39.9531 28.623H38.0244C37.9883 28.6262 37.9789 28.6363 37.9805 28.6758C38.2717 29.3675 38.5726 30.0545 38.8828 30.7383C38.8884 30.7504 38.898 30.7613 38.9092 30.7686C38.9203 30.7756 38.9332 30.7791 38.9463 30.7793C39.2155 30.7872 39.4847 30.7826 39.7539 30.7842C39.9915 30.781 40.5727 30.7907 40.8086 30.7686C41.0273 30.7511 41.2435 30.7109 41.4541 30.6494C42.3881 30.3645 42.9982 29.5448 43 28.5713V25.4346C43 25.2321 42.9842 25.0323 42.9463 24.833C42.9462 24.9534 42.8989 23.8166 41.7998 23.252C41.368 23.0263 40.8886 22.9068 40.4014 22.9014H40.1162C40.0532 22.8998 40.053 22.8961 40.0498 22.8379V21.167C40.0498 20.9581 40.0392 20.7503 40.0107 20.543C39.973 20.2527 39.8904 19.9698 39.7676 19.7041C39.5431 19.2222 39.1669 18.8272 38.6963 18.5801C38.2093 18.3184 37.6661 18.1785 37.1133 18.1719C36.871 18.1671 36.2149 18.1719 35.9727 18.1719C35.862 18.1719 35.8652 18.1776 35.8652 18.0684V17.2881C35.8652 17.239 35.849 17.2234 35.792 17.2266H33.3887C33.3866 17.2266 33.3632 17.2268 33.3525 17.2373ZM24.3877 18.1699C24.3403 18.1732 24.3301 18.1918 24.3301 18.2852V20.5732C24.3301 20.7046 24.3211 20.6953 24.457 20.6953H25.8096C25.8984 20.6953 25.9166 20.6918 25.9199 20.7393V28.2119C25.9177 28.2507 25.9078 28.2593 25.8691 28.2607H23.7207C23.6486 28.2623 23.6278 28.3036 23.626 28.3076L22.5225 30.7129C22.5225 30.7129 22.5003 30.7531 22.5098 30.7705C22.5192 30.786 22.5308 30.7832 22.6016 30.7832C25.3692 30.788 28.1357 30.7861 30.9033 30.7861C30.9505 30.7845 30.9564 30.776 30.958 30.7334V28.2969C30.958 28.2747 30.9421 28.2633 30.9199 28.2617H28.6006C28.5248 28.2601 28.5231 28.2588 28.5215 28.1846V20.8066C28.5215 20.6926 28.5141 20.6953 28.6328 20.6953H29.999C30.094 20.6953 30.1135 20.6989 30.1172 20.6484V18.2168C30.1135 18.1646 30.0932 18.1699 29.9912 18.1699H24.3877ZM14.0947 20.6924C14.0472 20.694 14.0405 20.7002 14.0469 20.7461L14.0801 21.21C14.2004 22.7647 14.3226 24.3193 14.4492 25.874C14.5284 26.5073 14.7433 27.5921 15.2197 28.5752C15.3828 28.9156 15.5729 29.2391 15.8057 29.5352C15.8294 29.5637 15.8644 29.6155 15.8818 29.6123C15.9135 29.6076 17.0569 27.0136 17.1553 26.8184C17.2123 26.7075 17.2019 26.7309 17.1592 26.6406C17.0182 26.34 16.946 26.0118 16.9463 25.6797C16.94 25.5467 16.8972 25.0622 16.5742 20.835C16.573 20.7913 16.5669 20.7477 16.5576 20.7051C16.5545 20.6964 16.5343 20.6934 16.5098 20.6924H14.0947ZM5.75488 20.6924C5.64248 20.6924 5.63477 20.6953 5.63477 20.708C5.62745 20.75 5.62237 20.7925 5.61914 20.835C5.5764 21.4633 5.55834 21.619 5.24805 25.6797C5.22905 26.0597 5.19409 26.2955 5.03418 26.6406C4.99302 26.7309 4.98206 26.7075 5.03906 26.8184C5.11253 26.9655 6.11738 29.2298 6.28516 29.5732C6.2978 29.5969 6.30301 29.6045 6.3125 29.6045C6.32547 29.6039 6.36472 29.5634 6.38672 29.5352C6.61947 29.2391 6.81055 28.9156 6.97363 28.5752C7.45808 27.5698 7.67033 26.4772 7.74316 25.874C7.7653 25.7 7.77677 25.5256 7.79102 25.3516L8.11426 21.21L8.14844 20.7461C8.15318 20.7002 8.1489 20.694 8.10156 20.6924H5.75488ZM20.1172 17.2148C20.1014 17.2149 20.0854 17.225 20.0791 17.2393L18.6133 20.5137C18.4786 20.7814 18.1161 21.5169 17.9814 21.998C17.9527 22.0961 17.9424 22.1989 17.9502 22.3008C17.9557 22.423 17.9912 22.542 18.0547 22.6465C18.1183 22.751 18.2075 22.8383 18.3135 22.8994C18.5371 23.0209 18.7875 23.0857 19.042 23.0879H19.9766C20.0391 23.0923 18.8873 25.4346 18.6562 26.21C18.6292 26.2981 18.6162 26.3903 18.6191 26.4824C18.62 26.6099 18.654 26.7353 18.7178 26.8457C18.7816 26.9561 18.8734 27.0478 18.9834 27.1123C19.2208 27.2579 19.5248 27.3027 19.7354 27.3027L22.3643 27.3008C22.38 27.3007 22.3956 27.2915 22.4004 27.2773L23.3105 25.251C23.3132 25.245 23.315 25.238 23.3145 25.2314C23.3138 25.2248 23.3114 25.2175 23.3076 25.2119C23.3038 25.2064 23.298 25.2022 23.292 25.1992C23.2861 25.1963 23.2791 25.195 23.2725 25.1953H21.8926C21.8591 25.1956 21.8255 25.1877 21.7959 25.1719C21.7663 25.156 21.741 25.1326 21.7227 25.1045C21.7045 25.0765 21.6939 25.0441 21.6914 25.0107C21.6889 24.9773 21.6952 24.9436 21.709 24.9131L23.5732 20.7568C23.5758 20.7509 23.5776 20.7447 23.5771 20.7383C23.5766 20.7317 23.5739 20.7252 23.5703 20.7197C23.5667 20.7143 23.5623 20.7092 23.5566 20.7061C23.5508 20.7029 23.5437 20.7021 23.5371 20.7021L21.4502 20.6973C21.411 20.6974 21.3723 20.6876 21.3379 20.6689C21.3033 20.6501 21.2733 20.622 21.252 20.5889C21.2308 20.5558 21.2185 20.5176 21.2158 20.4785C21.2131 20.4393 21.2199 20.3999 21.2363 20.3643L22.624 17.2705C22.6266 17.2645 22.6275 17.2575 22.627 17.251C22.6263 17.2446 22.6236 17.2388 22.6201 17.2334C22.6165 17.2279 22.6122 17.2228 22.6064 17.2197C22.6006 17.2166 22.5935 17.2148 22.5869 17.2148H20.1172ZM37.1191 20.6934C37.1841 20.6934 37.2478 20.6972 37.3096 20.7178C37.4564 20.7575 37.5622 20.8868 37.5703 21.04C37.5798 21.7215 37.5739 22.8629 37.5723 22.8662C37.5722 22.8867 37.5606 22.9027 37.54 22.9043C36.9923 22.9138 36.4446 22.9102 35.8984 22.9102C35.8763 22.907 35.8633 22.8942 35.8633 22.8721C35.8554 22.1851 35.8524 21.4965 35.8477 20.8096C35.8477 20.6956 35.8387 20.6967 35.959 20.6982L37.1191 20.6934ZM41.5684 18.1553C41.2638 18.1951 40.984 18.3456 40.7822 18.5771C40.5806 18.8087 40.4705 19.1061 40.4727 19.4131C40.4727 19.5737 40.4699 20.4679 40.4746 20.6436C40.4779 20.6685 40.4907 20.6744 40.585 20.6729H41.7334C41.9228 20.6734 42.1103 20.6315 42.2812 20.5498C42.4521 20.4681 42.6022 20.3488 42.7207 20.2012C42.8394 20.0533 42.9231 19.88 42.9658 19.6953C43.0085 19.5107 43.0094 19.3186 42.9678 19.1338C42.9005 18.8247 42.7192 18.5524 42.46 18.3711C42.2005 18.1897 41.882 18.1122 41.5684 18.1553Z" fill="black"/>
</svg>
